<?xml version="1.0" encoding="utf-8"?>
<!-- Generator: Adobe Illustrator 18.1.1, SVG Export Plug-In . SVG Version: 6.00 Build 0)  -->
<svg version="1.1" xmlns="http://www.w3.org/2000/svg" xmlns:xlink="http://www.w3.org/1999/xlink" x="0px" y="0px"
	 viewBox="0 0 464.8 532.2" enable-background="new 0 0 464.8 532.2" xml:space="preserve">
<g id="Layer_1">
</g>
<g id="Layer_2">
	<path fill="#ED1C24" d="M201.3,250.9c-5.3-5.2-1.4-16.9,0-21.2C238.1,117.5,326.1,88.9,326.1,88.9c18.6-5.4,41.7-13.6,69-5.3
		c47.9,14.4,64.9,64.4,66.4,69c0,0,13.2,40.9-13.3,95.6c-5.8,11.9-11.8,17.7-23.9,29.2c-2,1.9-5.6,5.2-10.6,5.3
		c-3.6,0.1-8.5-1.4-10.6-5.3c-2.5-4.6,1.9-10.7,5.3-15.9c0,0,10.8-16.6,18.6-31.9c16.3-32-10.5-75.3-13.3-79.6
		c-4.5-7.1-7.4-11.6-13.3-15.9c-19.5-14.3-48.2-8.9-66.4,0c-15.9,7.8-26.5,22-47.8,50.4c0,0-22.9,30.6-42.5,50.4
		c0,0-4.9,4.9-13.3,10.6c-10.6,7.2-15.7,7.9-18.6,8C209.1,253.6,204.3,253.8,201.3,250.9z"/>
	<path fill="#ED1C24" d="M315.5,391.6c-8.4-1.6-14.9-2.9-21.2,0c-4.2,1.9-5.1,4.2-10.6,10.6c-11.4,13.2-15.9,13.2-26.5,26.5
		c-7.7,9.7-8.2,13.3-8,15.9c0.5,6,5.1,12.1,10.6,13.3c5.6,1.1,9.9-3.4,18.6-10.6c20.7-17.3,28.2-18,42.5-34.5
		c7.4-8.5,9.3-12.9,8-15.9C327.4,393.9,323.3,393.1,315.5,391.6z"/>
	<path fill="#ED1C24" d="M134,447.7c4.4,2.7,10.5,7.4,15,15c10.5,17.5,7.2,41.2-3,54c-12,15.1-74.2,25.5-99,0
		C-2.1,466.1-6.8,434.4,6.2,429c9.9-4.1,17.4,12.7,28.8,24.7c4.3,4.6,8.5,6.5,13.5,7.7c8,1.8,18.1-5.5,28.5-10.7
		c5.4-2.7,15.8-7.8,27-9C110.7,441,120.9,441.4,134,447.7z"/>
	<path fill="#ED1C24" d="M72.1,4c15.6-6.1,29.4-3.6,34.5-2.7c11.6,2.2,19.2,6.9,29.2,13.3c26.8,17,27.2,29.8,47.8,50.4
		c1.7,1.7,5.8,5.7,5.3,10.6c-0.4,4.8-5,7.8-5.3,8c-4.5,2.8-10.1,1.8-15.9,0c-12.7-4-18.7-9.1-26.5-13.3
		c-25.1-13.2-50.3-5.8-58.4-2.7c-3.4,1.3-6,2.7-8,5.3c-7.3,9.4,0,25.9,2.7,31.9c5.3,11.9,12.7,17.8,18.6,26.5
		c11,16.5,11,16.5,15.1,29.2c1.9,6,10.9,23.3,11.5,31.9c2.8,41.4,9.5,32.3,10.6,58.4c2.4,55.2,2.5,77.2-1.1,96
		c-2.5,13-14.7,30.2-17.5,42.1c-0.2,0.9-1.4,6-5.3,10.6c-1.4,1.7-4.8,5.7-8,5.3c-5.4-0.6-7.5-15.1-8-18.6c-4-27.6,5-59.9,8-77
		c8.3-46.9-8.5-90.1-23.9-130.1C70.1,160.3,61.5,142,61.5,142c-13.6-28.8-16.6-28.7-21.2-42.5c-4.1-12.2-13.6-40.3,0-66.4
		C43,27.9,52.5,11.7,72.1,4z"/>
</g>
</svg>
