<?xml version="1.0" encoding="utf-8"?>
<!-- Generator: Adobe Illustrator 18.1.1, SVG Export Plug-In . SVG Version: 6.00 Build 0)  -->
<svg version="1.1" id="Layer_1" xmlns="http://www.w3.org/2000/svg" xmlns:xlink="http://www.w3.org/1999/xlink" x="0px" y="0px"
	 viewBox="0 0 50 44" enable-background="new 0 0 50 44" xml:space="preserve">
<g>
	<polygon fill="#FFFFFF" points="25,25.5 13,37.5 0.5,25 25,0.5 49.5,25 37,37.5 	"/>
	<path fill="#231F20" d="M25,1l24,24L37,37L25,25L13,37L1,25L25,1 M25,0l-0.5,0.5l-24,24L0,25l0.5,0.5l12,12L13,38l0.5-0.5L25,26
		l11.5,11.5L37,38l0.5-0.5l12-12L50,25l-0.5-0.5l-24-24L25,0L25,0z"/>
</g>
<g>
	<polygon fill="#231F20" points="12.9,43.6 25,31.5 37.1,43.6 	"/>
	<path fill="#231F20" d="M25,32l11.3,11.3H13.7L25,32 M25,31l-0.5,0.5L13.2,42.8L12,44h1.7h22.6H38l-1.2-1.2L25.5,31.5L25,31L25,31z
		"/>
</g>
<rect x="28.5" y="16.5" transform="matrix(0.7071 -0.7071 0.7071 0.7071 -6.8406 33.4853)" fill="#939598" width="17" height="17"/>
<rect x="2" y="10.5" transform="matrix(0.7071 -0.7071 0.7071 0.7071 -7.8701 19)" fill="#FFFFFF" width="33.9" height="17"/>
<g>
	<polygon fill="#662D91" points="25,32 13.7,43.3 19.7,43.3 28,35 	"/>
</g>
<polygon fill="#231F20" points="36.3,43.3 28,35 19.7,43.3 "/>
</svg>
